<?xml version="1.0" standalone="no"?>
<!DOCTYPE svg PUBLIC "-//W3C//DTD SVG 20010904//EN"
 "http://www.w3.org/TR/2001/REC-SVG-20010904/DTD/svg10.dtd">
<svg version="1.0" xmlns="http://www.w3.org/2000/svg"
 width="1024.000000pt" height="1024.000000pt" viewBox="0 0 1024.000000 1024.000000"
 preserveAspectRatio="xMidYMid meet">

<g transform="translate(0.000000,1024.000000) scale(0.100000,-0.100000)"
fill="#000000" stroke="none">
<path d="M4780 8833 c-25 -2 -118 -15 -207 -29 -734 -113 -1360 -439 -1887
-984 -556 -575 -870 -1251 -956 -2058 -14 -133 -15 -528 -1 -657 96 -888 517
-1673 1221 -2277 517 -443 1182 -713 1895 -769 275 -22 642 3 904 60 90 20 96
20 121 3 14 -9 147 -111 294 -227 437 -343 466 -364 511 -373 49 -10 105 -1
140 22 52 34 55 56 55 426 0 187 2 340 4 340 2 0 124 -59 272 -131 663 -323
827 -401 890 -418 116 -32 235 66 218 181 -11 79 -74 294 -224 768 -176 553
-210 664 -210 682 0 11 13 37 28 57 81 103 227 341 307 501 175 348 299 777
335 1162 14 147 14 472 0 618 -56 583 -245 1124 -553 1585 -139 209 -356 473
-378 459 -5 -3 -6 1 -3 9 6 17 -194 209 -336 322 -171 137 -410 289 -608 388
-349 174 -652 266 -1067 323 -107 15 -659 27 -765 17z m40 -17 c0 -2 -7 -7
-16 -10 -8 -3 -12 -2 -9 4 6 10 25 14 25 6z m-53 -102 c-3 -3 -12 -4 -19 -1
-8 3 -5 6 6 6 11 1 17 -2 13 -5z m646 -1 c-7 -2 -19 -2 -25 0 -7 3 -2 5 12 5
14 0 19 -2 13 -5z m19 -19 c233 -23 477 -75 698 -146 804 -260 1519 -886 1903
-1664 123 -250 202 -485 276 -819 57 -255 77 -676 47 -961 -59 -555 -250
-1052 -591 -1539 -43 -60 -82 -119 -87 -130 -11 -24 -5 -45 165 -570 256 -793
289 -913 267 -955 -18 -34 -53 -23 -277 83 -109 52 -236 113 -283 135 -47 22
-148 70 -225 107 -194 94 -578 275 -582 275 -2 0 -3 -192 -2 -426 1 -243 -3
-430 -8 -435 -16 -16 -75 24 -396 274 -183 143 -322 245 -329 241 -7 -4 -8 -3
-4 4 7 12 -83 85 -123 100 -16 6 -65 0 -155 -19 -237 -49 -388 -63 -656 -63
-255 -1 -335 7 -566 50 -529 98 -1049 341 -1442 673 -41 35 -78 59 -84 55 -6
-4 -8 -3 -4 4 3 6 -32 45 -79 88 -249 227 -523 591 -691 919 -203 393 -308
762 -345 1200 -16 196 -6 541 21 720 111 736 422 1350 949 1875 363 361 747
606 1197 763 239 83 546 148 784 167 172 13 465 11 622 -6z m-1165 -70 c-3 -3
-12 -4 -19 -1 -8 3 -5 6 6 6 11 1 17 -2 13 -5z m-397 -28 c0 -2 -7 -7 -16 -10
-8 -3 -12 -2 -9 4 6 10 25 14 25 6z m3015 -274 c-3 -3 -11 0 -18 7 -9 10 -8
11 6 5 10 -3 15 -9 12 -12z m1602 -2869 c-3 -10 -5 -2 -5 17 0 19 2 27 5 18 2
-10 2 -26 0 -35z m-6710 -555 c-3 -8 -6 -5 -6 6 -1 11 2 17 5 13 3 -3 4 -12 1
-19z m4990 -2760 c-3 -7 -5 -2 -5 12 0 14 2 19 5 13 2 -7 2 -19 0 -25z m0 -50
c-3 -7 -5 -2 -5 12 0 14 2 19 5 13 2 -7 2 -19 0 -25z m-1440 -14 c-3 -3 -12
-4 -19 -1 -8 3 -5 6 6 6 11 1 17 -2 13 -5z m1440 -46 c-3 -8 -6 -5 -6 6 -1 11
2 17 5 13 3 -3 4 -12 1 -19z m0 -245 c-3 -10 -5 -2 -5 17 0 19 2 27 5 18 2
-10 2 -26 0 -35z m0 -45 c-3 -8 -6 -5 -6 6 -1 11 2 17 5 13 3 -3 4 -12 1 -19z"/>
<path d="M4920 8504 c-636 -46 -1212 -267 -1700 -654 -130 -103 -401 -373
-502 -500 -345 -437 -545 -910 -635 -1505 -22 -149 -25 -618 -5 -760 52 -365
133 -641 276 -940 166 -348 361 -623 630 -889 161 -159 286 -260 480 -388 487
-321 1067 -488 1690 -488 201 0 502 36 678 81 132 33 108 45 411 -199 150
-120 278 -222 285 -226 10 -6 12 60 12 328 -1 221 3 342 10 356 13 24 60 50
91 50 13 0 120 -46 238 -102 574 -270 931 -432 938 -425 2 3 -84 268 -191 591
-108 322 -196 598 -196 614 0 20 20 54 71 118 287 357 504 815 593 1249 168
814 3 1647 -466 2345 -196 292 -492 592 -788 801 -299 212 -702 388 -1081 473
-228 51 -632 85 -839 70z m233 -21 c-7 -2 -19 -2 -25 0 -7 3 -2 5 12 5 14 0
19 -2 13 -5z m-410 -20 c-7 -2 -21 -2 -30 0 -10 3 -4 5 12 5 17 0 24 -2 18 -5z
m-186 -29 c-3 -3 -12 -4 -19 -1 -8 3 -5 6 6 6 11 1 17 -2 13 -5z m-72 -14 c4
-6 -7 -10 -27 -9 -27 0 -30 2 -13 9 27 12 33 12 40 0z m-72 -17 c-7 -2 -19 -2
-25 0 -7 3 -2 5 12 5 14 0 19 -2 13 -5z m-205 -55 c-16 -5 -28 -14 -28 -19 0
-6 -5 -7 -11 -3 -13 8 27 34 51 33 8 0 3 -5 -12 -11z m1822 -2 c0 -2 -7 -7
-16 -10 -8 -3 -12 -2 -9 4 6 10 25 14 25 6z m210 -79 c13 -5 13 -6 -1 -6 -8
-1 -24 6 -35 15 -19 15 -19 15 1 6 11 -5 27 -12 35 -15z m-2470 -92 c-7 -8
-17 -15 -23 -15 -6 0 -2 7 9 15 25 19 30 19 14 0z m3081 -242 c13 -16 12 -17
-3 -4 -10 7 -18 15 -18 17 0 8 8 3 21 -13z m-3732 -195 c-2 -2 -20 -16 -39
-33 l-35 -30 29 33 c17 17 34 32 40 32 5 0 7 -1 5 -2z m4107 -120 c12 -14 13
-18 3 -10 -9 6 -18 10 -21 7 -2 -3 -5 2 -5 10 0 19 0 19 23 -7z m185 -195 c13
-16 12 -17 -3 -4 -10 7 -18 15 -18 17 0 8 8 3 21 -13z m-3172 -351 c39 -24 70
-61 121 -147 26 -44 91 -152 145 -240 173 -286 183 -310 154 -368 -18 -34
-184 -187 -192 -176 -7 10 -103 166 -113 184 -30 54 -388 632 -401 647 -14 15
-10 20 38 51 125 79 183 90 248 49z m-259 -39 c0 -1 -8 -7 -18 -12 -13 -7 -19
-6 -19 2 0 7 9 13 19 13 10 0 18 -1 18 -3z m157 -523 c129 -212 241 -394 249
-404 11 -16 9 -23 -14 -54 -36 -48 -37 -135 -3 -202 147 -282 667 -844 926
-999 40 -24 73 -36 110 -39 54 -4 54 -4 113 52 l59 56 50 -43 c28 -23 90 -73
139 -112 49 -38 163 -128 254 -200 91 -72 202 -159 247 -192 l81 -61 -36 -34
c-111 -104 -249 -193 -349 -227 -280 -94 -538 -3 -993 352 -278 216 -508 427
-709 652 -103 116 -154 176 -266 320 -96 122 -260 390 -330 539 -95 200 -126
348 -107 496 23 169 92 301 234 444 77 78 80 80 94 61 9 -11 121 -193 251
-405z m407 154 c3 -8 2 -12 -4 -9 -6 3 -10 10 -10 16 0 14 7 11 14 -7z m-1007
-276 c-3 -7 -5 -2 -5 12 0 14 2 19 5 13 2 -7 2 -19 0 -25z m851 -523 c-3 -3
-9 2 -12 12 -6 14 -5 15 5 6 7 -7 10 -15 7 -18z m1524 -703 c65 -34 580 -442
612 -485 27 -37 25 -90 -7 -152 -27 -53 -92 -135 -108 -135 -9 0 -264 190
-354 264 -49 41 -191 152 -352 275 -49 38 -80 68 -76 75 19 33 133 139 168
156 50 25 71 25 117 2z m-921 -39 c13 -16 12 -17 -3 -4 -10 7 -18 15 -18 17 0
8 8 3 21 -13z m3096 -265 c-3 -8 -6 -5 -6 6 -1 11 2 17 5 13 3 -3 4 -12 1 -19z
m-3504 -270 c45 -41 47 -44 37 -78 -20 -68 -32 -203 -25 -275 l7 -74 276 -3
c214 -2 283 -6 302 -17 14 -8 55 -33 92 -57 113 -74 231 -129 314 -148 112
-25 120 -30 148 -83 24 -48 56 -145 56 -170 0 -11 -166 -13 -926 -13 l-926 0
7 37 c37 199 199 372 400 428 l60 17 0 146 c1 150 11 207 62 334 l15 38 27
-20 c14 -11 47 -39 74 -62z m-206 -300 c-3 -7 -5 -2 -5 12 0 14 2 19 5 13 2
-7 2 -19 0 -25z m1963 -17 c0 -5 -7 -12 -16 -15 -14 -5 -15 -4 -4 9 14 17 20
19 20 6z m1230 -597 c0 -8 -19 -13 -24 -6 -3 5 1 9 9 9 8 0 15 -2 15 -3z m-2
-719 c-3 -3 -9 2 -12 12 -6 14 -5 15 5 6 7 -7 10 -15 7 -18z m-1741 -481 c-3
-3 -12 -4 -19 -1 -8 3 -5 6 6 6 11 1 17 -2 13 -5z m-40 -10 c-3 -3 -12 -4 -19
-1 -8 3 -5 6 6 6 11 1 17 -2 13 -5z"/>
</g>
</svg>
